<?xml version="1.0" encoding="UTF-8"?>
<svg xmlns="http://www.w3.org/2000/svg" viewBox="0 0 140.02 60">
  <path d="M125.57,18.09c.06-.93.85-2.01,2.29-2.01,1.58,0,2.24.99,2.29,2.01h-4.57,0ZM127.81,13.85c-2.62,0-5.03,2.11-5.03,5.36,0,3.44,2.47,5.45,5.28,5.45,2.51,0,4.14-1.47,4.66-3.23l-2.31-.68c-.33.91-1.04,1.55-2.33,1.55-1.37,0-2.51-.97-2.58-2.32h7.32l.04-.85c0-3.27-1.89-5.28-5.05-5.28h0ZM65.62,36.45c.03-1.94,1.43-3.4,3.3-3.4,2.02,0,3.28,1.3,3.3,3.4h-6.6ZM73.49,37.35v-.61c.01-2.88-1.79-4.75-4.59-4.75-2.28,0-4.63,1.92-4.63,5.13,0,3.57,2.54,5.2,4.89,5.2,1.93,0,3.5-.99,4.2-2.64l.02-.06-1.07-.37-.02.05c-.57,1.28-1.65,1.96-3.13,1.96-2.13,0-3.56-1.55-3.58-3.86h7.91v-.05h0,0ZM14.9,0L0,25.82v5.65L18.16,0h-3.26M57.51,22.14v-3.95h1.29c1.1,0,1.56.09,2.02.35.55.33.83.87.83,1.66,0,.7-.24,1.22-.72,1.55-.44.31-.92.39-1.95.39h-1.47ZM57.51,12.06h1.05c.85,0,1.47.09,1.88.28.53.26.88.9.88,1.64,0,1.35-.83,1.99-2.61,1.99h-1.21v-3.91h0,0ZM63.17,23.65c.94-.63,1.51-1.83,1.51-3.19,0-1.11-.37-2.01-1.05-2.62-.46-.42-.85-.59-1.73-.79.79-.26,1.12-.46,1.53-.87.61-.65.92-1.48.92-2.49,0-1.29-.51-2.4-1.4-3.08-.77-.57-1.93-.83-3.72-.83h-4.71v14.56h5.39c1.6,0,2.5-.2,3.26-.7h0s0,0,0,0ZM139.69,13.89c-.61,0-1.21.18-1.64.48-.42.31-.62.61-.9,1.35v-1.48h-2.78v10.11h2.78v-4.87c0-.96.09-1.4.42-1.85.4-.57,1.1-.92,1.86-.92l.59.04v-2.84c-.15-.02-.26-.02-.33-.02M103.76,33.76v-1.59h-1.19v9.98h1.19v-5.21c0-1.41.25-2.18.96-2.94.51-.55,1.14-.82,1.99-.84h.42v-1.16h-.49c-.75,0-1.52.24-2.04.66-.37.31-.58.58-.84,1.1M109.54,18.34c0-1.4.55-2.12,1.6-2.12s1.54.72,1.54,2.12v6h2.78v-6.09c0-1.29.59-2.03,1.62-2.03s1.56.66,1.56,2.03v6.09h2.78v-6.61c0-1.53-.2-2.23-.81-2.9-.57-.61-1.43-.94-2.46-.94-1.45,0-2.39.52-3.07,1.68-.48-1.09-1.45-1.68-2.76-1.68s-2.15.5-2.78,1.61v-1.27h-2.78v10.11h2.78v-6.01M100.39,16.09c1.58,0,2.25.99,2.29,2.01h-4.57c.06-.93.85-2.01,2.29-2.01h0ZM100.59,24.66c2.51,0,4.14-1.47,4.66-3.23l-2.31-.68c-.33.91-1.04,1.55-2.33,1.55-1.37,0-2.51-.97-2.58-2.32h7.32l.04-.85c0-3.27-1.89-5.28-5.05-5.28-2.62,0-5.03,2.11-5.03,5.36,0,3.44,2.47,5.45,5.28,5.45h0s0,0,0,0ZM31.4,0L0,54.19v5.64L31.4,5.64l6.62,11.42L13.27,59.83h3.26l14.88-25.71,6.61,11.41-8.26,14.3h3.26l8.26-14.3-8.25-14.23,8.25-14.25L31.4,0M81.16,22.65c-.81,0-1.21-.39-1.34-1.27h-2.67c.11,2.1,1.58,3.32,3.99,3.32s3.94-1.31,3.94-3.27c0-1.64-.9-2.53-3.18-3.23-1.4-.44-1.43-.44-1.73-.68-.18-.13-.29-.39-.29-.66,0-.55.44-.92,1.12-.92.75,0,1.29.44,1.29,1.05v.17h2.63c-.07-2.05-1.47-3.27-3.79-3.27s-3.92,1.29-3.92,3.21c0,1.59.99,2.58,3.18,3.23,1.49.46,1.89.74,1.89,1.35,0,.57-.46.96-1.12.96M90.34,22.65c-.81,0-1.21-.39-1.34-1.27h-2.67c.11,2.1,1.58,3.32,3.99,3.32s3.94-1.31,3.94-3.27c0-1.64-.9-2.53-3.18-3.23-1.4-.44-1.43-.44-1.73-.68-.18-.13-.29-.39-.29-.66,0-.55.44-.92,1.12-.92.75,0,1.29.44,1.29,1.05v.17h2.63c-.07-2.05-1.47-3.27-3.79-3.27s-3.92,1.29-3.92,3.21c0,1.59.99,2.58,3.18,3.23,1.49.46,1.89.74,1.89,1.35,0,.57-.46.96-1.12.96M112.58,50.33c-.37.31-.58.58-.84,1.1v-1.59h-1.19v9.98h1.19v-5.21c0-1.41.25-2.18.96-2.94.51-.55,1.14-.82,1.98-.84h.42v-1.16h-.49c-.75,0-1.52.24-2.04.66M90.29,42.08v-.96l-.04-.06-.07.03c-.4.14-.82.21-1.24.21-.92,0-1.41-.58-1.41-1.67v-6.42h2.62v-1.03h-2.62v-2.4h-1.18v2.4h-1.47v1.03h1.47v6.5c0,1.67.92,2.62,2.53,2.62.65,0,1.05-.11,1.37-.22h.04M87.39,58.76c-.4.14-.81.21-1.24.21-.92,0-1.41-.58-1.41-1.67v-6.42h2.62v-1.03h-2.62v-2.4h-1.18v2.4h-1.47v1.03h1.47v6.5c0,1.67.92,2.62,2.54,2.62.47,0,.93-.06,1.37-.22h.04v-.97l-.04-.06-.07.02M94.22,49.67c-1.32-.02-2.57.55-3.43,1.56v-1.38h-1.19v9.98h1.19v-6.11c0-.94.19-1.43.78-2.04.57-.59,1.17-.95,2.4-.95h.19c1.16.04,2.4.75,2.4,2.65v6.45h1.19v-6.48c.03-1.1-.28-1.99-.92-2.63s-1.61-1.03-2.61-1.03M100.39,32.16h-1.18v6.07c0,1.02-.16,1.58-.6,2.06-.51.55-1.38.91-2.21.91-1.68,0-2.82-1.19-2.82-2.97v-6.07s-1.18,0-1.18,0v6.07c0,2.44,1.62,4.08,4.03,4.08,1.12,0,2.17-.42,2.95-1.17.76-.71,1.03-1.47,1.03-2.91v-6.07M82.3,42.14h1.19v-6.48c.03-1.1-.28-1.99-.92-2.63s-1.61-1.03-2.61-1.03c-1.36,0-2.54.54-3.43,1.56v-1.38h-1.19v9.98h1.19v-6.11c0-.94.19-1.43.78-2.04.57-.59,1.17-.95,2.4-.95h.19c1.16.04,2.4.75,2.4,2.65v6.45M100.85,54.13c.03-1.94,1.43-3.4,3.3-3.4,2.02,0,3.28,1.3,3.3,3.4h-6.6ZM104.12,49.67c-2.28,0-4.63,1.92-4.63,5.13,0,3.57,2.54,5.2,4.89,5.2,1.93,0,3.5-.99,4.2-2.64l.02-.05-1.07-.37-.02.05c-.57,1.28-1.65,1.96-3.13,1.96-2.13,0-3.56-1.55-3.58-3.86h7.91v-.05s.02-.61.02-.61c0-2.88-1.81-4.75-4.61-4.75h0s0,0,0,0ZM59.57,42.15l5.23-14.3-1.31-.04-4.45,12.3-4.28-12.26-1.35-.02,5.09,14.32h1.06M61.86,51.64c-.37.53-.91.92-1.53,1.1-.51.18-1.09.26-1.99.26h-2.2v-6.39h1.79c1.04,0,1.66.06,2.28.24,1.36.39,2.2,1.51,2.2,2.94,0,.66-.19,1.3-.57,1.84h0ZM62.2,46.56c-.87-.69-2.12-1.03-3.81-1.03h-3.46s-.01,14.3-.01,14.3h1.23v-5.75h2.44c1.64,0,2.67-.26,3.46-.88,1-.76,1.57-2.01,1.57-3.43,0-1.33-.5-2.47-1.42-3.21h0ZM112.38,33.05c2.02,0,3.28,1.3,3.3,3.4h-6.6c.03-1.94,1.43-3.4,3.3-3.4ZM116.84,39.62l-1.07-.37-.02.05c-.57,1.28-1.65,1.96-3.13,1.96-2.13,0-3.56-1.55-3.58-3.86h7.91v-.05s.02-.61.02-.61c0-2.88-1.81-4.75-4.61-4.75-2.28,0-4.63,1.92-4.63,5.13,0,3.57,2.54,5.2,4.89,5.2,1.93,0,3.5-.99,4.2-2.64l.02-.06h0s0,0,0,0ZM78.11,50.33c-.37.31-.58.58-.84,1.1v-1.59h-1.19v9.98h1.19v-5.2c0-1.41.25-2.18.96-2.94.51-.55,1.14-.82,1.99-.84h.42v-1.16h-.49c-.75,0-1.52.24-2.04.66M119.99,54.21c-1.81-.45-2.31-.84-2.31-1.83s.81-1.6,2.12-1.6c1.38,0,2.16.63,2.16,1.73v.06h1.23v-.06c-.09-1.77-1.35-2.82-3.38-2.82s-3.37,1.13-3.37,2.76c0,.72.33,1.45.86,1.91.51.46,1.14.74,2.31,1.02,1.78.42,2.43.94,2.43,1.9s-.87,1.66-2.16,1.66c-1.45,0-2.36-.71-2.44-1.9v-.05h-1.22v.06c.22,1.97,1.44,2.97,3.62,2.97,2.06,0,3.44-1.1,3.44-2.74,0-.71-.29-1.39-.79-1.9-.51-.53-1.16-.83-2.5-1.15M70.96,16.09c1.58,0,2.25.99,2.29,2.01h-4.57c.06-.93.85-2.01,2.29-2.01h0ZM73.52,20.75c-.33.91-1.04,1.55-2.33,1.55-1.37,0-2.51-.97-2.58-2.32h7.32l.04-.85c0-3.27-1.89-5.28-5.05-5.28-2.62,0-5.03,2.11-5.03,5.36,0,3.44,2.47,5.45,5.28,5.45,2.51,0,4.14-1.47,4.66-3.23l-2.31-.68h0s0,0,0,0ZM68.88,58.88c-1.94,0-3.41-1.71-3.41-3.98,0-1.06.32-2.1.87-2.87.63-.86,1.43-1.24,2.61-1.24,2.16,0,3.61,1.56,3.61,3.89s-1.65,4.19-3.67,4.19h0,0ZM72.53,51.56c-.94-1.26-2.14-1.88-3.67-1.88-2.72,0-4.62,2.12-4.62,5.16s1.95,5.16,4.64,5.16c1.5,0,2.67-.71,3.65-2.22v2.05h1.19v-9.98h-1.19v1.71h0Z"/>
</svg>
