<?xml version="1.0" encoding="UTF-8"?>
<svg id="Layer_8" data-name="Layer 8" xmlns="http://www.w3.org/2000/svg" viewBox="0 0 1024 1024">
  <defs>
    <style>
      .cls-1 {
        fill: #000;
        stroke-width: 0px;
      }
    </style>
  </defs>
  <path class="cls-1" d="M967.93,574.45l.12-.11c-18.62-27.58-54.06-37.13-83.54-24.24-1.31-2.73-2.78-5.35-4.48-7.86-9.72-14.63-24.46-24.52-41.61-27.79-16.87-3.28-33.91.27-47.94,9.94l-3.06,2.13c-.49-.87-1.04-1.75-1.64-2.57-9.39-14.14-23.75-23.7-40.35-26.86-16.27-3.11-32.71.27-46.25,9.61l-36.48,25.06c-.44-.71-.87-1.47-1.37-2.13-8.63-12.72-21.73-21.35-36.97-24.24-15.07-2.84-30.2.33-42.7,8.9l-136.02,93.15-19.88-8.9c-49.42-22.01-98.78-25.94-150.93-11.96-41.06,10.98-77.54,31.45-109.64,49.47-24.24,13.6-47.18,26.48-66.23,31.56l-42.76,11.52c-8.41,2.24-13.43,10.92-11.14,19.33,2.24,8.41,10.92,13.43,19.33,11.14l42.75-11.52c22.88-6.12,47.45-19.93,73.5-34.51,30.52-17.15,65.14-36.53,102.38-46.52,44.88-12.01,87.37-8.68,129.9,10.27l65.03,29.05c45.76,20.48,91.62,24.14,140.16,11.14l67.33-18.07c10.59-2.84,21.73-1.37,31.34,4.2,9.61,5.51,16.44,14.41,19.28,25.06,2.84,10.59,1.37,21.68-4.15,31.29-5.51,9.61-14.41,16.44-25.01,19.33l-233.92,62.68c-8.41,2.24-13.43,10.92-11.14,19.33,1.91,7.04,8.25,11.69,15.23,11.69,1.37,0,2.73-.16,4.1-.55l233.92-62.68c18.78-5.02,34.45-17.09,44.18-34.02,9.72-16.93,12.34-36.53,7.26-55.2-.27-1.09-.66-2.24-.98-3.33l125.75-84.96c16.65-11.25,39.26-6.83,50.51,9.83,5.41,7.97,7.32,17.64,5.46,27.19-1.86,9.61-7.26,17.85-15.29,23.26l-322.16,217.65c-29.16,19.71-156.55,51.66-224.97,68.8-17.15,4.31-31.94,8.03-41.72,10.65-15.51,4.1-29.49,4.91-45.27,2.73l-22.72-3.33c-17.91-2.57-113.52-6.28-134.49-.66l-84.47,22.61c-8.41,2.24-13.43,10.92-11.19,19.33,1.91,7.04,8.25,11.69,15.23,11.69,1.37,0,2.73-.16,4.1-.55l84.53-22.61c13.6-3.66,101.73-1.47,121.82,1.42l22.72,3.33c20.2,2.84,38,1.8,57.88-3.44,9.56-2.57,24.24-6.22,41.22-10.54,101.84-25.55,203.89-52.2,234.97-73.28l322.16-217.65c15.02-10.1,25.17-25.55,28.61-43.41,3.44-17.85-.22-35.93-10.32-50.84ZM490.93,627.58l-11.41-5.08v-.05s120.07-82.29,120.07-82.29c5.51-3.77,12.23-5.19,18.95-3.88,6.88,1.31,12.78,5.19,16.71,10.98.49.76.98,1.53,1.42,2.35l-125.04,85.84c-6.88-2.18-13.81-4.81-20.69-7.86ZM637.16,629.66l-27.19,7.32h.06c-18.4,4.91-36.42,7.04-54.11,6.28l161.19-110.68c6.55-4.48,14.47-6.17,22.39-4.64,8.25,1.58,15.34,6.33,20.04,13.43.66.98,1.26,1.97,1.75,3l-124.11,85.29ZM749.7,639.81c-10.48-11.3-24.35-19.06-39.48-22l98.18-67.43c7.04-4.86,15.56-6.61,24.08-4.97,8.79,1.69,16.33,6.77,21.35,14.31,1.53,2.29,2.73,4.75,3.66,7.26l-107.79,72.84ZM454.5,448.2c8.11-.02,15.18-5.48,17.23-13.32l100.09-380.5c2.51-9.53-3.17-19.27-12.7-21.79-9.53-2.51-19.27,3.19-21.79,12.7l-100.07,380.52c-1.2,4.58-.54,9.44,1.84,13.53,2.38,4.09,6.29,7.06,10.86,8.26,1.48.39,3.02.58,4.54.6h0ZM378.77,361.62c6.96,6.96,18.26,6.96,25.22,0,6.96-6.96,6.96-18.24,0-25.22l-96.36-96.3,96.32-96.3c3.55-3.3,5.61-7.9,5.72-12.74.09-4.84-1.8-9.53-5.22-12.95-3.43-3.43-8.11-5.33-12.95-5.24-4.84.09-9.44,2.16-12.74,5.7l-96.64,96.64c-13.74,13.77-13.74,36.05,0,49.82l96.64,96.59ZM620.05,118.58c-6.94,6.96-6.94,18.26,0,25.22l96.32,96.3-96.32,96.3c-3.55,3.3-5.61,7.9-5.72,12.74-.09,4.84,1.8,9.53,5.22,12.95,3.43,3.43,8.11,5.33,12.95,5.24,4.84-.09,9.44-2.16,12.74-5.7l96.64-96.64c13.74-13.77,13.74-36.05,0-49.82l-96.64-96.64c-6.98-6.92-18.24-6.89-25.18.06h0Z"/>
</svg>