<?xml version="1.0" encoding="UTF-8"?>
<svg id="Layer_5" data-name="Layer 5" xmlns="http://www.w3.org/2000/svg" viewBox="0 0 1024 1024">
  <defs>
    <style>
      .cls-1 {
        fill: #000;
        fill-rule: evenodd;
        stroke-width: 0px;
      }
    </style>
  </defs>
  <path class="cls-1" d="M120.21,163.29L541.5,32.5c3.84-1.17,7.89-.21,10.67,2.24l258.17,185.73c3.31,1.92,5.55,5.55,5.55,9.71v263.29h85.35c6.19,0,11.2,5.01,11.2,11.2v476.12c0,6.19-5.01,11.2-11.2,11.2H122.77c-6.19,0-11.2-5.01-11.2-11.2V174.17c0-5.33,3.73-9.81,8.75-10.99h0l-.11.11ZM625.88,777.57h194.27c6.19,0,11.2-5.01,11.2-11.2s-5.01-11.2-11.2-11.2h-194.27c-6.19,0-11.2,5.01-11.2,11.2s5.01,11.2,11.2,11.2h0ZM625.88,698.3h194.27c6.19,0,11.2-5.01,11.2-11.2s-5.01-11.2-11.2-11.2h-194.27c-6.19,0-11.2,5.01-11.2,11.2s5.01,11.2,11.2,11.2h0ZM625.88,618.93h194.27c6.19,0,11.2-5.01,11.2-11.2s-5.01-11.2-11.2-11.2h-194.27c-6.19,0-11.2,5.01-11.2,11.2s5.01,11.2,11.2,11.2h0ZM731.39,286.19v153.94c0,6.19,5.01,11.2,11.2,11.2s11.2-5.01,11.2-11.2v-153.94c0-6.19-5.01-11.2-11.2-11.2s-11.2,5.01-11.2,11.2h0ZM663.44,249.38v190.75c0,6.19,5.01,11.2,11.2,11.2s11.2-5.01,11.2-11.2v-190.75c0-6.19-5.01-11.2-11.2-11.2s-11.2,5.01-11.2,11.2h0ZM595.37,193.16v246.97c0,6.19,5.01,11.2,11.2,11.2s11.2-5.01,11.2-11.2v-246.97c0-6.19-5.01-11.2-11.2-11.2s-11.2,5.01-11.2,11.2h0ZM222.84,625.23c-5.87,1.81-12.16-1.6-13.98-7.47-1.81-5.97,1.6-12.16,7.47-13.98l317.27-96.44v-94.2l-301.06,91.53c-5.87,1.81-12.16-1.6-13.98-7.47-1.81-5.97,1.6-12.16,7.47-13.98l307.57-93.56v-94.2l-301.06,91.96c-5.87,1.81-12.16-1.6-13.98-7.47-1.81-5.97,1.6-12.16,7.47-13.98l307.57-93.88v-92.71l-301.06,90.89c-5.97,1.81-12.16-1.6-13.98-7.57s1.6-12.16,7.57-13.98l307.46-92.81V58.42l-399.63,124.07v787.1h97.93v-190c0-5.33,3.73-9.81,8.75-10.99l180.4-56.01c5.87-1.81,12.16,1.49,13.98,7.47.32,1.07.53,2.24.53,3.31h0v246.33h97.93v-438.89l-310.77,94.52h0l.11-.11ZM413.16,969.6v-231.07l-158.74,49.29v181.79h158.74ZM556.01,851.5h333.92v-335.52h-333.92v335.52h0ZM889.92,874.01h-333.92v95.59h333.92v-95.59h0ZM793.37,493.47V235.94l-237.37-170.8v428.33h237.37Z"/>
</svg>