<svg xmlns="http://www.w3.org/2000/svg" viewBox="0 0 2000 750">
  <path d="M495.13,27v376.52l44.75-39.05,181.52-158.39,9.25-8.07V28.41h51.53v357.48l-51.53,44.66v-160.65l-44.64,38.51-181.52,156.61-9.36,8.08v169.26l-51.53,46.72V27h51.53M365.59,27v662.07l-51.53-46.72v-169.26l-9.36-8.08-181.52-156.61-44.64-38.51v160.65l-51.53-44.66V28.41h51.53v169.61l9.25,8.07,181.52,158.39,44.75,39.05V27h51.53M522.13,0h-105.53v750l105.53-95.68v-168.86l181.52-156.61v160.83l105.53-91.46V1.41h-105.53v184.33l-181.52,158.39V0h0ZM392.59,0h-105.53v344.13L105.53,185.74V1.41H0v396.81l105.53,91.46v-160.83l181.52,156.61v168.86l105.53,95.68V0h0Z"/>
  <path d="M987.51,59.39h22.01v108.94h-22.01v-46.67h-46.82v46.67h-22.01V59.39h22.01v45.42h46.82v-45.42Z"/>
  <path d="M1134.69,59.08v16.86h-40.89v28.56h36.21v16.86h-36.21v30.12h40.89v16.86h-62.9V59.08h62.9Z"/>
  <path d="M1218.97,124.95v43.39h-22.01V59.39h40.11c12.59,0,22.29,3.15,29.11,9.44,6.81,6.3,10.22,14.07,10.22,23.33,0,6.87-2.08,13.27-6.24,19.2-4.16,5.93-10.72,9.99-19.67,12.17l27.78,44.8h-26.07l-26.07-43.39h-7.18ZM1218.97,76.25v31.84h18.11c5.51,0,9.73-1.43,12.64-4.29,2.91-2.86,4.37-6.74,4.37-11.63s-1.46-8.76-4.37-11.63c-2.91-2.86-7.13-4.29-12.64-4.29h-18.11Z"/>
  <path d="M1396.28,169.43c-15.71,0-28.93-5.25-39.64-15.76-10.72-10.51-16.08-23.85-16.08-40.03s5.38-29.52,16.15-40.03c10.77-10.51,23.98-15.76,39.64-15.76s28.85,5.26,39.57,15.76c10.72,10.51,16.08,23.86,16.08,40.03s-5.36,29.53-16.08,40.03c-10.72,10.51-23.93,15.76-39.64,15.76ZM1420.32,139.54c6.14-6.5,9.21-15.16,9.21-25.99s-3.07-19.46-9.21-25.91c-6.14-6.45-14.15-9.68-24.04-9.68s-17.92,3.25-24.11,9.75c-6.19,6.5-9.29,15.14-9.29,25.91s3.09,19.41,9.29,25.91c6.19,6.5,14.23,9.76,24.11,9.76s17.9-3.25,24.04-9.76Z"/>
  <path d="M1514.28,168.34V59.39h22.01v108.94h-22.01Z"/>
  <path d="M1614.64,153.51c-10.72-10.51-16.08-23.83-16.08-39.96s5.38-29.45,16.15-39.96c10.77-10.51,23.96-15.76,39.57-15.76,11.86,0,22.4,3.02,31.61,9.05,9.21,6.04,15.79,14.52,19.74,25.44h-26.38c-4.89-9.57-13.22-14.36-24.97-14.36-9.89,0-17.92,3.25-24.11,9.75-6.19,6.5-9.29,15.14-9.29,25.91s3.09,19.41,9.29,25.91c6.19,6.5,14.23,9.76,24.11,9.76,11.65,0,19.98-4.78,24.97-14.36h26.38c-3.96,10.93-10.54,19.38-19.74,25.36-9.21,5.98-19.74,8.97-31.61,8.97-15.71,0-28.93-5.25-39.64-15.76Z"/>
  <path d="M948.96,328.32l-39.8-108.94h23.26l29.81,86.94,29.81-86.94h23.41l-39.96,108.94h-26.53Z"/>
  <path d="M1140.73,219.06v16.86h-40.89v28.56h36.21v16.86h-36.21v30.12h40.89v16.86h-62.9v-109.26h62.9Z"/>
  <path d="M1274.45,219.06h22.01v109.26h-22.01l-49.32-75.54v75.54h-22.01v-109.26h22.01l49.32,75.54v-75.54Z"/>
  <path d="M1358.84,236.23v-16.86h80.69v16.86h-29.5v92.09h-21.85v-92.09h-29.34Z"/>
  <path d="M1501.92,286.49v-67.11h22.01v67.11c0,7.49,1.9,13.16,5.7,17.01,3.8,3.85,9.23,5.77,16.31,5.77s12.54-1.92,16.39-5.77c3.85-3.85,5.77-9.52,5.77-17.01v-67.11h21.85v67.11c0,13.73-4.32,24.32-12.95,31.76-8.64,7.44-19.15,11.16-31.53,11.16s-22.74-3.69-31.06-11.08c-8.33-7.39-12.49-18-12.49-31.84Z"/>
  <path d="M1674.35,284.93v43.39h-22.01v-108.94h40.11c12.59,0,22.29,3.15,29.11,9.44,6.81,6.3,10.22,14.07,10.22,23.33,0,6.87-2.08,13.27-6.24,19.2-4.16,5.93-10.72,9.99-19.67,12.17l27.78,44.8h-26.07l-26.07-43.39h-7.18ZM1674.35,236.23v31.84h18.11c5.51,0,9.73-1.43,12.64-4.29,2.91-2.86,4.37-6.74,4.37-11.63s-1.46-8.77-4.37-11.63c-2.91-2.86-7.13-4.29-12.64-4.29h-18.11Z"/>
  <path d="M1858.95,219.06v16.86h-40.89v28.56h36.21v16.86h-36.21v30.12h40.89v16.86h-62.9v-109.26h62.9Z"/>
  <path d="M1958.95,235.45c-4.37,0-7.94,1.12-10.69,3.36-2.76,2.24-4.14,5.33-4.14,9.29s1.01,7.05,3.04,9.29c2.03,2.24,4.71,3.96,8.04,5.15,3.33,1.2,6.97,2.26,10.93,3.2,3.95.94,7.91,2.08,11.86,3.43,3.95,1.35,7.59,3.02,10.93,4.99,3.33,1.98,6.01,4.87,8.04,8.66,2.03,3.8,3.04,8.4,3.04,13.81,0,8.95-3.56,16.65-10.69,23.1-7.13,6.45-16.6,9.68-28.41,9.68s-21.36-2.78-28.64-8.35c-7.28-5.57-10.93-13.4-10.93-23.49h23.41c.83,9.57,6.29,14.36,16.39,14.36,4.99,0,8.95-1.3,11.86-3.9,2.91-2.6,4.37-6.06,4.37-10.38s-1.93-7.73-5.77-10.22c-3.85-2.5-8.51-4.37-13.97-5.62-5.46-1.25-10.95-2.76-16.47-4.53-5.52-1.77-10.2-4.86-14.05-9.29-3.85-4.42-5.77-10.27-5.77-17.56,0-9.88,3.59-17.79,10.77-23.72,7.18-5.93,16.41-8.9,27.7-8.9s20.37,2.58,27.24,7.73c6.87,5.15,10.61,12.98,11.24,23.49h-24.04c-.42-4.16-1.98-7.47-4.68-9.91-2.71-2.44-6.24-3.67-10.61-3.67Z"/>
</svg>
