<?xml version="1.0" encoding="UTF-8"?>
<svg id="Layer_1" data-name="Layer 1" xmlns="http://www.w3.org/2000/svg" viewBox="0 0 1024 1024">
  <defs>
    <style>
      .cls-1 {
        fill: #000;
        stroke-width: 0px;
      }
    </style>
  </defs>
  <path class="cls-1" d="M511.98,680.95c-48.25,0-87.5,39.26-87.5,87.53s39.25,87.52,87.5,87.52,87.53-39.26,87.53-87.52-39.26-87.53-87.53-87.53ZM511.98,816.67c-26.57,0-48.18-21.62-48.18-48.2s21.62-48.21,48.18-48.21,48.21,21.63,48.21,48.21-21.63,48.2-48.21,48.2ZM822.02,373.85c-9.25-162.97-144.77-292.73-310.02-292.73S211.38,210.71,201.98,373.85c-96.69,12.48-169.98,94.28-169.98,193.69,0,107.83,87.71,195.54,195.54,195.54h66.91v130.52c0,27.17,22.1,49.28,49.27,49.28h336.53c27.19,0,49.31-22.11,49.31-49.28v-130.53h66.9c107.83,0,195.54-87.71,195.54-195.54-.02-99.39-73.29-181.19-169.98-193.68ZM690.23,893.6c0,5.49-4.48,9.96-9.99,9.96h-336.53c-5.49,0-9.95-4.46-9.95-9.96v-250.28c0-5.49,4.46-9.95,9.95-9.95h300.15s.09,0,.14,0c.04,0,.07,0,.11,0h36.15c5.5,0,9.99,4.46,9.99,9.95v250.28h0ZM625.59,594.06h-227.2v-38.71c0-62.65,50.96-113.61,113.6-113.61s113.61,50.96,113.61,113.61v38.71ZM796.45,723.75h-66.9v-80.43c0-27.17-22.12-49.27-49.31-49.27h-15.34v-38.7c0-84.32-68.6-152.93-152.93-152.93s-152.92,68.6-152.92,152.93v38.71h-15.36c-27.17,0-49.27,22.1-49.27,49.27v80.43h-66.91c-86.14,0-156.22-70.08-156.22-156.22s66.12-152.86,150.52-155.91c10.58-.38,18.95-9.4,18.95-19.97,0-149.54,121.67-271.21,271.22-271.21s270.94,121.39,271.21,270.71c0,.29-.02.58-.02.83,0,10.58,8.38,19.27,18.95,19.65,84.4,3.06,150.53,71.54,150.53,155.91,0,86.13-70.07,156.21-156.2,156.21Z"/>
</svg>