<?xml version="1.0" encoding="UTF-8"?>
<svg id="Layer_6" data-name="Layer 6" xmlns="http://www.w3.org/2000/svg" viewBox="0 0 1024 1024">
  <defs>
    <style>
      .cls-1 {
        fill: #000;
        stroke-width: 0px;
      }
    </style>
  </defs>
  <path class="cls-1" d="M373.48,859.44c16.48,3.97,30.02,15.68,36.32,31.42,30.96,78.95,97.31,101.14,154.57,101.14,23.46.03,46.78-3.61,69.11-10.8,8.45-3.19,12.72-12.63,9.53-21.08-3.01-7.97-11.63-12.3-19.82-9.94-5.59,1.86-137.75,43.9-182.89-71.23-17.57-43.85-67.36-65.16-111.21-47.59-7.68,3.08-14.87,7.25-21.34,12.39-22.9,17.97-67.39,49.17-107.49,56.09-12.42,2.68-25.39.39-36.15-6.37-14.55-10.07-22.15-28.08-22.58-53.52-.41-8.92-7.7-15.97-16.63-16.07-9.03.15-16.23,7.59-16.08,16.63,0,0,0,0,0,0,.79,45.57,20.37,68.59,36.68,79.87,17.77,11.66,39.42,15.86,60.26,11.69,44.81-7.73,91.13-38.31,122.13-62.59,12.83-10.21,29.66-13.91,45.59-10.03ZM152.89,625.02l5.34.12c-1.43,1.83-2.45,3.95-3,6.2l-33.24,139.22c-2.09,8.79,3.34,17.61,12.13,19.7,3.64.87,7.47.46,10.85-1.16l129.62-61.97c2.21-1.06,4.16-2.61,5.7-4.53l40.11-50.02c11.22,7.02,24.13,10.89,37.36,11.22,11.37,34.9,28.81,85.96,80.55,85.96,15.87-.49,30.66-8.14,40.24-20.8,10.88,12.27,26.16,19.75,42.53,20.84.87,0,1.74,0,2.62-.09,28.8-1.93,51.25-28,56.05-62.75,25.49,6.76,51.65,10.7,78,11.77,1.89.07,3.76.1,5.65.1,40.76-.23,80.18-14.62,111.5-40.7l22.76-18.73v47.1c0,9.03,7.32,16.36,16.36,16.36h93.15c9.03,0,16.36-7.32,16.36-16.36s-7.32-16.36-16.36-16.36h-76.85v-324.65h76.79c9.03,0,16.36-7.32,16.36-16.36s-7.32-16.36-16.36-16.36h-93.15c-9.03,0-16.36,7.32-16.36,16.36v43.02l-144.27-53.6c-8.47-3.15-17.89,1.17-21.04,9.64-3.15,8.47,1.17,17.89,9.64,21.04l155.66,57.79v190.03l-43.55,35.83c-26.71,22.2-60.54,33.98-95.26,33.17-38.62-1.89-76.68-9.96-112.74-23.89-19.12-7.18-39.37-10.9-59.79-10.97h-126.6c-22.99-.01-41.61-18.66-41.6-41.64.01-22.97,18.63-41.59,41.6-41.6h177.91c25.73.03,46.62-20.81,46.65-46.54.01-12.41-4.92-24.31-13.71-33.06l-19.63-19.63c-6.5-6.28-16.85-6.1-23.13.4-6.12,6.34-6.12,16.39,0,22.73l19.63,19.63c5.42,5.42,5.42,14.21,0,19.63-2.6,2.6-6.13,4.06-9.81,4.06h-107.13l309.03-385.81c18.2-22.68,14.57-55.81-8.11-74.01-.03-.02-.06-.05-.09-.07l-39.49-31.62c-22.7-18.27-55.92-14.68-74.19,8.02-.01.01-.02.03-.04.04l-169.61,211.71c-44.49-4.81-89.2,6.91-125.6,32.93-71.31,50.76-131.61,115.41-177.29,190.08l-36.71,59.82c-4.12,6.67-6.71,14.18-7.57,21.97-1.55,13.88,2.88,27.76,12.19,38.17,10.11,11.52,24.59,18.27,39.92,18.6ZM438.32,737.07c-23.73,0-35.3-22.31-46-53.15h71.28c.45,3.08.69,6.19.72,9.3,0,6.53-1,13.01-2.96,19.24-.69,1.38-1.19,2.85-1.46,4.36-4.86,12.18-13.3,20.25-21.59,20.25ZM547.67,697.41c-1.41,23.58-14.18,38.89-26.17,39.69-6.15.47-16.84-5.71-27.37-19.82,1.96-7.87,2.94-15.95,2.91-24.06,0-2.99-.15-5.92-.4-8.82,13.02,1.05,25.83,3.9,38.07,8.46,4.34,1.6,8.66,3.09,12.97,4.55ZM643.07,72.2c6.95-8.63,19.59-9.99,28.22-3.04l39.55,31.73c8.61,6.88,10.01,19.44,3.12,28.05,0,.01-.02.02-.03.03l-325.41,406.28h-28.88c-40.99-.06-74.27,33.11-74.33,74.1-.02,14.22,4.04,28.15,11.71,40.13l-39.91,49.77-95.34,45.58,24.43-102.32,11.52-14.37,19.73,19.74c6.39,6.39,16.75,6.38,23.13,0,6.39-6.39,6.38-16.75,0-23.13h0l-22.28-22.28L600.3,125.66l21.55,21.55c6.39,6.39,16.75,6.38,23.13,0,6.39-6.39,6.38-16.75,0-23.13h0l-24.1-24.1,22.19-27.77ZM136.23,563.39l36.69-59.82c43.39-70.93,100.68-132.34,168.42-180.56,23.78-17.05,52.04-26.76,81.27-27.94l-238.67,297.93-30.33-.68c-6.14-.17-11.94-2.87-16.02-7.46-3.24-3.5-4.82-8.21-4.36-12.95.36-3.02,1.38-5.93,2.99-8.52Z"/>
</svg>